<?xml version="1.0" standalone="no"?>
<!DOCTYPE svg PUBLIC "-//W3C//DTD SVG 20010904//EN"
 "http://www.w3.org/TR/2001/REC-SVG-20010904/DTD/svg10.dtd">
<svg version="1.0" xmlns="http://www.w3.org/2000/svg"
 width="512.000000pt" height="512.000000pt" viewBox="0 0 512.000000 512.000000"
 preserveAspectRatio="xMidYMid meet">
<metadata>
Created by potrace 1.11, written by Peter Selinger 2001-2013
</metadata>
<g transform="translate(0.000000,512.000000) scale(0.100000,-0.100000)"
fill="#000000" stroke="none">
<path d="M660 4465 c0 -245 -3 -315 -12 -316 -7 0 -149 0 -315 0 l-303 0 -1
-37 c-4 -239 0 -3124 5 -3129 3 -3 145 -6 316 -5 l310 0 0 -316 0 -317 1894 0
c1042 0 1898 3 1901 7 4 4 8 146 8 316 l0 309 301 1 c165 0 308 1 317 1 15 1
16 135 15 1584 l-1 1582 -140 2 c-77 1 -219 2 -316 3 l-177 0 0 298 c0 163 -1
305 -1 315 -1 16 -98 17 -1901 17 l-1900 0 0 -315z m3168 -1267 l0 -948 -177
-1 c-397 -1 -442 -1 -448 5 -4 3 -6 145 -6 316 l0 310 -317 0 -317 0 0 303
c-1 166 -2 309 -2 317 -1 13 -42 15 -313 15 l-313 0 -3 309 c-1 183 2 312 7
315 5 4 432 6 949 6 l940 0 0 -947z m-1900 -612 c0 -160 1 -302 1 -316 l1 -25
315 0 315 0 0 -317 0 -318 317 -2 318 -3 0 -312 0 -313 -947 0 -948 0 -1 23
c-1 26 0 1822 0 1853 1 21 3 21 315 21 l314 0 0 -291z"/>
</g>
</svg>
